<?xml version="1.0" encoding="UTF-8"?>
<svg xmlns="http://www.w3.org/2000/svg" viewBox="0 0 32 32" width="32" height="32">
<rect width="32" height="32" rx="5" fill="#FDFAF6"/>
<rect x="0.5" y="0.5" width="31" height="31" rx="4.5" fill="none" stroke="#E0D8C8" stroke-width="0.5"/>
<clipPath id="c"><rect width="32" height="32" rx="5"/></clipPath>
<g clip-path="url(#c)">
<g transform="translate(-8.64,-7.167999999999999) scale(0.044800000000000006)">
<path fill="none" stroke="#2A2520" stroke-width="16" stroke-linejoin="round" d="M 522.5 212 L 525 213.5 L 521 219.5 Q 523.8 220.6 523 224 L 528 226.5 Q 526.1 231.9 529.5 231 Q 532.8 232.2 532 236 L 540.5 239 L 543.5 238 L 546.5 240 L 561.5 242 L 570.5 245 L 571.5 244 L 579.5 244 L 581.5 246 Q 587.3 245.2 589 248.5 L 588 252 L 584 252 Q 585.1 254.7 582.5 254 L 576 258 L 575 263.5 L 582 266 L 582 268 L 586 268 L 586 269.5 L 582.5 274 Q 580.3 273.3 581 275.5 Q 578.3 276.6 579 280 L 585 280 L 585 283.5 L 583 288.5 L 584 291 Q 589.8 291.4 593 295.5 Q 596.6 297.4 596 303.5 L 592.5 305 L 590 304 L 591 300.5 L 588.5 296 L 585.5 294 L 582 292 L 582 296 L 580.5 296 L 576.5 299 L 575.5 296 L 572.5 294 L 566.5 293 L 564 294 Q 565.1 296.7 562.5 296 L 562.5 297 Q 566.3 296 565 299 Q 562 301.7 555.5 302 L 547.5 308 L 544.5 308 L 536.5 313 L 532 314 L 531.5 316 L 530.5 313 L 529 313.5 L 531.5 312 L 534 313 Q 535.8 308.1 529.5 310 Q 524.7 316 526 327 L 528.5 326 Q 531.6 327.4 531 332.5 Q 528.2 334.3 532.5 336 Q 534.8 335.3 534 337.5 L 538 339 L 539 344 L 537 344 L 537 349 L 535.5 349 L 534 352 L 531 352 Q 532.1 348.7 528 350 L 527 359.5 Q 529.6 360.9 529 365.5 L 528 367.5 L 532 384.5 L 535 389 Q 537.7 387.9 537 390.5 L 540 392 L 540 394 Q 542.7 392.9 542 395.5 L 547.5 400 L 550.5 400 L 555.5 403 L 563 409 Q 561.9 411.7 564.5 411 Q 567.2 416.2 573 417 Q 571.8 420 575.5 419 L 582 420 Q 580.5 423.7 583.5 423 L 590 436.5 L 593 447.5 L 595 449.5 L 595 454.5 L 599 469.5 L 607 484 Q 609.7 482.9 609 485.5 Q 612.4 490.5 618 492 Q 616.5 495.7 619.5 495 L 621 498 L 624 499.5 Q 623.3 501.8 625.5 501 Q 627.5 504.2 632 504 L 632 509 L 633.5 509 L 646 515.5 Q 645.3 517.8 647.5 517 L 648.5 518 L 657.5 518 L 662.5 520 L 666.5 518 L 685.5 518 L 687.5 517 L 693 519.5 Q 695.6 520.9 695 525.5 L 693 529 L 687 532 Q 688.3 535 684.5 534 L 682 535 L 682 543 L 684 543 Q 682.9 545.7 685.5 545 L 701.5 554 L 710 557 Q 708.8 560 712.5 559 L 724.5 563 L 726.5 565 L 730.5 565 L 737.5 569 L 743 574.5 Q 742.2 577.1 745.5 576 L 751.5 582 L 755.5 582 L 765.5 588 L 769 588 Q 767.9 590.7 770.5 590 L 773 591 Q 771.8 595.6 774.5 597 Q 777.1 596.3 776 599 L 778.5 599 L 782 601 L 785 607 L 788 608.5 L 793 617.5 L 793 621.5 L 792 624 Q 789.3 622.9 790 625.5 L 788 629.5 Q 788.8 635.6 787 638 L 778.5 635 L 773 630.5 Q 773.7 627.9 771 629 L 771 624.5 L 770 622.5 L 771 620.5 L 770 618 Q 767.3 619.1 768 616.5 L 766 611 L 763.5 610 L 749.5 610 L 737 604 L 738 600.5 Q 736 597 729.5 598 L 726 600.5 L 724 603.5 L 720 608.5 L 720 611 Q 716.7 609.7 718 614.5 L 712 621.5 L 712 626.5 L 713 628.5 L 707 636.5 L 707 639.5 L 710 646 Q 713.1 648 720 647 L 721.5 650 Q 724.1 649.3 723 652 L 726 652 L 726 654 L 728.5 654 L 731 655 L 732.5 658 Q 736.3 656.8 735 660.5 Q 732.3 662.3 734 668.5 L 735 671.5 L 734 676.5 Q 737.5 677 737 681.5 L 733.5 686 L 723.5 685 L 716.5 688 L 710 693.5 L 709 698.5 L 710 699.5 L 710 713.5 L 698 721.5 L 695 727 Q 691.7 725.7 693 730.5 L 689.5 739 L 673.5 739 L 671 736.5 L 670 728.5 L 671 722 Q 666.5 720.3 668 725.5 L 662 736 Q 659.3 734.9 660 737.5 L 653 747.5 L 651 758.5 L 648 761.5 L 648 770.5 L 654 773 L 654 777 Q 651.3 775.9 652 778.5 L 655.5 783 Q 658.9 782.1 657 787.5 L 651 792.5 L 648 800.5 L 649 805.5 Q 647.8 808.3 646.5 806 L 636.5 803 Q 635 806.5 633.5 804 L 625.5 800 L 621 800 Q 619.2 790.9 612.5 786 Q 609 781.5 599.5 783 L 597.5 784 Q 594.3 780 588 780 L 586.5 777 Q 583.9 777.7 585 775 L 582.5 775 L 571 769 L 569.5 766 L 566.5 764 L 559 762 Q 560.1 759.3 557.5 760 Q 555.5 756 547.5 758 L 545.5 759 L 543 758 L 539.5 753 Q 535.5 753.5 535 750.5 L 534 746.5 Q 536.6 745.1 536 740.5 L 535.5 739 L 537 739 L 537 733.5 L 538.5 733 L 546 729 Q 544.1 723.4 549 725 L 549 727.5 L 553.5 733 Q 560.4 733.9 562 729.5 Q 562.8 727.3 560.5 728 L 560.5 727 L 562 727 L 562.5 725 L 567.5 725 L 572.5 724 L 574 728 L 576 728 Q 574.9 730.7 577.5 730 L 580.5 729 L 582 733 L 584.5 733 L 588.5 736 L 594.5 736 Q 597.9 730.9 608.5 733 Q 610 735.5 615.5 734 Q 617.3 731.3 623.5 733 L 631 728.5 Q 630.1 725.5 634.5 727 Q 636.2 724.2 641.5 725 L 647.5 728 L 651 727 L 651 725 Q 653.7 726.1 653 723.5 L 654.5 724 L 658.5 724 L 659 722 L 661.5 722 Q 663.8 717.9 670 719 L 671.5 722 L 678 718.5 L 682 709.5 L 682 704.5 Q 678.3 703.2 679 699 L 682 699 Q 680.8 696 684.5 697 L 685.5 696 L 693 696 L 695 692.5 L 695 685 L 692 683.5 L 689 675.5 L 687 660.5 L 684 654 Q 681.3 655.1 682 652.5 L 677 642.5 L 676 631.5 L 669.5 623 L 665.5 623 L 661.5 627 L 659.5 627 L 654 622.5 Q 654.8 620.3 652.5 621 L 648.5 617 L 647.5 618 Q 644.2 619.1 645 616.5 L 641 615 L 640 608.5 L 643 607 L 643 603.5 L 637 591 L 630.5 590 L 623.5 593 L 620.5 592 L 615.5 595 L 615 591 Q 618.8 592.5 618 589.5 L 621 588 Q 622.7 583.9 618.5 585 L 612.5 580 L 607.5 582 L 604 581 L 603.5 583 L 603 577.5 L 598 570.5 L 595 562 Q 592.3 563.1 593 560.5 Q 591.8 555.8 584.5 557 Q 583.3 560 579 559 Q 580.3 556 576.5 557 L 572.5 554 L 569.5 554 L 560 559 L 556 549 L 549.5 548 L 540 542.5 Q 541.1 539.2 538.5 540 L 537 537 Q 534.3 538.1 535 535.5 L 532 534 L 530.5 531 L 525 529 L 523 520 L 515 515 Q 516.1 512.3 513.5 513 L 507 511 L 503 500.5 L 497.5 495 L 483.5 490 L 482 493 Q 478.2 493.8 477 490.5 L 477 489 L 481 489 L 481 483.5 L 478 482 L 474.5 476 L 473 476 Q 474.5 472.3 471.5 473 L 468.5 470 L 463 469 L 464 465.5 L 464 463.5 L 462.5 461 L 456.5 459 Q 455.4 461.8 452 461 L 451 458.5 Q 455.9 454.4 454 443.5 L 451 436 Q 448 437.3 449 433.5 L 448 431 L 445 429.5 L 443 424.5 L 442 408.5 Q 439.9 401.1 434.5 397 Q 431.2 398.1 432 395.5 L 430.5 396 L 424.5 394 L 422.5 395 Q 420.3 391 415 391 Q 416.1 388.3 413.5 389 Q 410.3 384 404 383 Q 405.1 380.3 402.5 381 L 399 380 L 398.5 378 L 397.5 381 L 395 380 L 393.5 377 Q 388.5 378 387.5 375 L 377.5 374 L 374 375 Q 375.1 377.7 372.5 377 L 365 382.5 L 365 385.5 L 363 389 L 357 391 L 356 397 Q 352.7 395.7 354 400.5 L 344.5 408 Q 337.7 407.2 335.5 411 L 325.5 411 Q 323 410 324 405.5 L 331 398.5 L 332 391.5 L 331 389 L 319.5 392 L 305.5 384 L 302 384 L 298 377.5 L 298 374.5 L 299 372.5 L 296 367.5 L 299 363 L 301 363 L 301 358 L 304.5 358 L 305.5 356 L 304 356 L 304 349.5 L 302.5 349 L 293 346 L 292 339.5 L 290.5 338 Q 288.3 338.8 289 336.5 L 287 332 Q 289.3 329.4 295.5 330 L 298 331 Q 296.9 328.3 299.5 329 L 308 323.5 L 307 319 Q 309.7 320.1 309 317.5 L 310 314 L 307 312.5 L 305.5 310 L 303 308.5 L 302 300 Q 297.1 300.1 295 296.5 L 295 289.5 L 296.5 289 L 302 288 L 304 283 Q 306.7 281.9 306 284.5 Q 307 287 311.5 286 L 317.5 284 L 319.5 284 L 326.5 280 L 330.5 280 Q 332.5 284.8 340 283 L 341.5 280 L 346 279 L 346 275.5 L 348 272 L 351 272 L 351 265.5 L 349 262 L 356 258.5 L 357.5 256 L 359 256 L 359 252 L 361.5 252 L 363.5 251 L 365 252.5 L 365 265 L 370 267.5 L 371 271 Q 373.1 272.6 378.5 272 L 382 274.5 L 380 279.5 L 382 280 L 382 282 Q 384.7 280.9 384 283.5 L 385 289 L 390 289 L 390 286.5 Q 392.5 285 389 283.5 L 388 280.5 L 393 269 L 396 267.5 Q 395.3 264.9 398 266 L 398 263.5 L 400 257.5 L 399 256.5 L 399 249 L 403.5 248 L 407 249 L 410 260 L 418 261 L 419.5 258 L 428.5 256 L 431 257 Q 429.8 263.4 434.5 265 L 437 263.5 L 435 257.5 L 437 254 L 434 254 Q 435 251 432 252 L 432 246 Q 435 247.3 434 243.5 L 435 241 L 439.5 240 L 442 241 Q 440.5 244.7 443.5 244 Q 444.9 246.6 449.5 246 Q 452 244.8 451 241 L 447 238.5 L 449 228.5 L 451.5 226 L 455.5 227 L 459.5 226 L 463 227 Q 461.5 230.8 464.5 230 L 466.5 232 L 474 232 L 477 223.5 L 480.5 220 Q 482.8 217.3 488.5 218 L 490.5 219 L 493.5 217 L 494.5 218 Q 502 216.5 505.5 219 L 512.5 215 L 518 215 Q 516.7 211.7 521.5 213 L 522.5 212 Z M 537 306 L 536 308 L 539 308 L 537 306 Z M 536 400 L 533 403 L 534 405 L 537 404 Q 538 399 536 400 Z "/>
<path fill="none" stroke="#2A2520" stroke-width="16" stroke-linejoin="round" d="M 423 453 Q 426.3 451.9 425 456 Q 421.7 457.1 423 453 Z "/>
<path fill="none" stroke="#2A2520" stroke-width="16" stroke-linejoin="round" d="M 448.5 464 Q 450.8 464.8 450 468.5 L 448.5 474 L 444.5 471 L 440.5 473 L 438.5 472 Q 436.8 474.8 435 470.5 L 437.5 467 L 441.5 468 L 448 465.5 L 448.5 464 Z "/>
<path fill="none" stroke="#2A2520" stroke-width="16" stroke-linejoin="round" d="M 434.5 479 L 435 481.5 L 434 481.5 L 434.5 479 Z "/>
<path fill="none" stroke="#2A2520" stroke-width="16" stroke-linejoin="round" d="M 468 492 L 471 493.5 L 470.5 496 L 468 495 L 468 492 Z "/>
<path fill="none" stroke="#2A2520" stroke-width="16" stroke-linejoin="round" d="M 397.5 556 L 401 557 Q 399.9 560.3 404 559 Q 402.9 556.3 405.5 557 L 407.5 557 Q 410.5 556.1 409 560.5 L 408.5 562 L 413 563 L 412 569 L 416 570.5 L 414 571 L 413 574.5 L 419 579.5 L 418 584 Q 421.3 582.7 420 587.5 L 421 594 Q 423.7 592.9 423 595.5 L 424 599.5 L 419.5 607 Q 416.5 606.2 418 610 L 416 610 L 416 617.5 L 420 621.5 L 420 624.5 L 418 628.5 L 419 631.5 L 418 632.5 L 418 642.5 L 415 658.5 L 415 665.5 L 413 669.5 L 414 671.5 L 411.5 675 L 406.5 674 L 400.5 669 L 397.5 669 Q 396.4 671.8 393 671 L 392.5 669 L 390 672.5 L 390 681.5 L 388.5 683 Q 386.3 682.3 387 684.5 L 384 686 Q 385.3 689 381.5 688 L 376.5 685 L 374 686 L 373.5 688 L 370 679.5 L 367.5 677 L 365 683 L 362 681.5 L 361 675 Q 366.6 676.9 365 672 Q 362.3 673.1 363 670.5 L 362 668.5 L 364 663.5 L 362 659.5 L 363 654.5 L 365 652.5 L 365 640 L 368 640 Q 367 637 370 638 L 370 633 L 365.5 632 Q 364.3 634.3 363 631.5 Q 361.2 624.7 364.5 623 Q 366.8 623.8 366 621.5 L 366 619.5 Q 368.5 608 362 605.5 L 363 602.5 L 362 599 Q 358.7 600.3 360 595.5 L 357.5 594 L 355.5 594 L 353.5 595 L 352 591 Q 355.7 592.2 354 587 Q 350.7 588.3 352 583.5 L 356 576 Q 352.7 577.3 354 572.5 L 357 574.5 Q 354.8 575.8 357.5 577 Q 360.1 576.3 359 579 L 363.5 579 Q 364.8 581.3 369.5 580 L 373 577.5 Q 372.2 574.9 375.5 576 L 382 572.5 L 384 569.5 L 389 563 L 395 562 L 397.5 556 Z "/>
<path fill="none" stroke="#2A2520" stroke-width="16" stroke-linejoin="round" d="M 359.5 563 L 361 566.5 L 357 568 L 356.5 571 L 356 568.5 L 359.5 563 Z "/>
<path fill="none" stroke="#2A2520" stroke-width="16" stroke-linejoin="round" d="M 595 584 L 599 585.5 Q 600.2 590.1 595 588 L 595 584 Z "/>
<path fill="none" stroke="#2A2520" stroke-width="16" stroke-linejoin="round" d="M 356 671 Q 362 669 360 675 L 356 673.5 L 356 671 Z "/>
<path fill="none" stroke="#2A2520" stroke-width="16" stroke-linejoin="round" d="M 652 691 Q 655 690 654 693 Q 651 694 652 691 Z "/>
<path fill="none" stroke="#2A2520" stroke-width="16" stroke-linejoin="round" d="M 624.5 703 L 625.5 705 Q 622.7 705.7 624.5 703 Z "/>
<path fill="none" stroke="#2A2520" stroke-width="16" stroke-linejoin="round" d="M 635 703 Q 639.5 701.5 638 706 L 635 704.5 L 635 703 Z "/>
<path fill="none" stroke="#2A2520" stroke-width="16" stroke-linejoin="round" d="M 640.5 707 L 643 708.5 L 641.5 711 Q 639.3 711.8 640 709.5 Q 637.8 708.3 640.5 707 Z "/>
<path fill="none" stroke="#2A2520" stroke-width="16" stroke-linejoin="round" d="M 642.5 712 L 644 714.5 L 642 715.5 L 641 713.5 L 642.5 712 Z "/>
<path fill="none" stroke="#2A2520" stroke-width="16" stroke-linejoin="round" d="M 518 736 Q 521 735 520 738 Q 517 739 518 736 Z "/>
<path fill="none" stroke="#2A2520" stroke-width="16" stroke-linejoin="round" d="M 528.5 738 L 531 738.5 L 528.5 739 L 528.5 738 Z "/>
<path fill="none" stroke="#2A2520" stroke-width="16" stroke-linejoin="round" d="M 513 797 Q 516.8 796 518 798.5 Q 519.7 803.3 515.5 802 Q 512.3 800.8 513 797 Z "/>
</g>
</g>
</svg>